<?xml version="1.0" encoding="utf-8"?>
<!-- Generator: Adobe Illustrator 18.1.1, SVG Export Plug-In . SVG Version: 6.00 Build 0)  -->
<svg version="1.1" id="Layer_1" xmlns="http://www.w3.org/2000/svg" xmlns:xlink="http://www.w3.org/1999/xlink" x="0px" y="0px"
	 viewBox="0 0 32 32" enable-background="new 0 0 32 32" xml:space="preserve">
<g id="Layer_1_1_">
	<circle fill="none" stroke="#231F20" stroke-miterlimit="10" cx="13.8" cy="8.5" r="1.1"/>
	<circle fill="none" stroke="#231F20" stroke-miterlimit="10" cx="18.2" cy="8.5" r="1.1"/>
	<path fill="none" stroke="#231F20" stroke-miterlimit="10" d="M23.3,9.5c0,0,0.4,2.3,0.7,3.8s3.7-3.3,4.9-1.7
		c2.1,2.8-4.3,5.3-3.8,7.9s2.6,9.7,1.8,10.5S6,30.9,5.1,30.1s1.1-7.4,1.7-9.8s-5.2-5.7-3.7-8c1.1-1.7,4.7,2.5,4.9,1
		c0.3-1.5,0.6-3.6,0.6-3.6C9.4,5.5,11.8,2,16,2S22.3,5.1,23.3,9.5z"/>
</g>
</svg>
