<?xml version="1.0" encoding="UTF-8" standalone="no"?>
<!-- Generator: Adobe Illustrator 18.1.1, SVG Export Plug-In . SVG Version: 6.00 Build 0)  -->

<svg
   xmlns:dc="http://purl.org/dc/elements/1.1/"
   xmlns:cc="http://creativecommons.org/ns#"
   xmlns:rdf="http://www.w3.org/1999/02/22-rdf-syntax-ns#"
   xmlns:svg="http://www.w3.org/2000/svg"
   xmlns="http://www.w3.org/2000/svg"
   xmlns:sodipodi="http://sodipodi.sourceforge.net/DTD/sodipodi-0.dtd"
   xmlns:inkscape="http://www.inkscape.org/namespaces/inkscape"
   version="1.1"
   id="Layer_1"
   x="0px"
   y="0px"
   viewBox="0 0 32 32"
   enable-background="new 0 0 32 32"
   xml:space="preserve"
   inkscape:version="0.91 r13725"
   sodipodi:docname="ghost1-filled.svg"><metadata
     id="metadata14"><rdf:RDF><cc:Work
         rdf:about=""><dc:format>image/svg+xml</dc:format><dc:type
           rdf:resource="http://purl.org/dc/dcmitype/StillImage" /><dc:title></dc:title></cc:Work></rdf:RDF></metadata><defs
     id="defs12" /><sodipodi:namedview
     pagecolor="#ffffff"
     bordercolor="#666666"
     borderopacity="1"
     objecttolerance="10"
     gridtolerance="10"
     guidetolerance="10"
     inkscape:pageopacity="0"
     inkscape:pageshadow="2"
     inkscape:window-width="1369"
     inkscape:window-height="885"
     id="namedview10"
     showgrid="false"
     inkscape:zoom="7.375"
     inkscape:cx="-0.13559322"
     inkscape:cy="16"
     inkscape:window-x="65"
     inkscape:window-y="24"
     inkscape:window-maximized="0"
     inkscape:current-layer="Layer_1" /><path
     style="fill:#dd4814;stroke:#dd4814;stroke-miterlimit:10;stroke-opacity:1;fill-opacity:1"
     inkscape:connector-curvature="0"
     id="path8"
     d="m 23.3,9.5 c 0,0 0.4,2.3 0.7,3.8 0.3,1.5 3.7,-3.3 4.9,-1.7 2.1,2.8 -4.3,5.3 -3.8,7.9 0.5,2.6 2.6,9.7 1.8,10.5 C 26.1,30.8 6,30.9 5.1,30.1 4.2,29.3 6.2,22.7 6.8,20.3 7.4,17.9 1.6,14.6 3.1,12.3 4.2,10.6 7.8,14.8 8,13.3 8.3,11.8 8.6,9.7 8.6,9.7 9.4,5.5 11.8,2 16,2 c 4.2,0 6.3,3.1 7.3,7.5 z"
     stroke-miterlimit="10" /></svg>