<?xml version="1.0" encoding="UTF-8" standalone="no"?>
<!-- Created with Inkscape (http://www.inkscape.org/) -->

<svg
   xmlns:osb="http://www.openswatchbook.org/uri/2009/osb"
   xmlns:dc="http://purl.org/dc/elements/1.1/"
   xmlns:cc="http://creativecommons.org/ns#"
   xmlns:rdf="http://www.w3.org/1999/02/22-rdf-syntax-ns#"
   xmlns:svg="http://www.w3.org/2000/svg"
   xmlns="http://www.w3.org/2000/svg"
   xmlns:xlink="http://www.w3.org/1999/xlink"
   xmlns:sodipodi="http://sodipodi.sourceforge.net/DTD/sodipodi-0.dtd"
   xmlns:inkscape="http://www.inkscape.org/namespaces/inkscape"
   inkscape:export-ydpi="96"
   inkscape:export-xdpi="96"
   width="512"
   height="512"
   id="svg11300"
   sodipodi:version="0.32"
   inkscape:version="0.92.2 (5c3e80d, 2017-08-06)"
   sodipodi:docname="neverbore-app.svg"
   inkscape:output_extension="org.inkscape.output.svg.inkscape"
   version="1.0"
   style="display:inline;enable-background:new"
   inkscape:export-filename="/Users/Sam/SparkleShare/suru-icons/Suru/512x512/apps/sudoku-app.png">
  <title
     id="title3004">Template</title>
  <sodipodi:namedview
     stroke="#ef2929"
     fill="#f57900"
     id="base"
     pagecolor="#474747"
     bordercolor="#666666"
     borderopacity="0.25490196"
     inkscape:pageopacity="0"
     inkscape:pageshadow="2"
     inkscape:zoom="0.5"
     inkscape:cx="-12.138035"
     inkscape:cy="243.47792"
     inkscape:current-layer="g3055"
     showgrid="false"
     inkscape:grid-bbox="true"
     inkscape:document-units="px"
     inkscape:showpageshadow="false"
     inkscape:window-width="1297"
     inkscape:window-height="703"
     inkscape:window-x="69"
     inkscape:window-y="27"
     width="400px"
     height="300px"
     inkscape:snap-nodes="true"
     inkscape:snap-bbox="true"
     gridtolerance="10000"
     inkscape:object-nodes="true"
     inkscape:snap-grids="true"
     showguides="false"
     inkscape:guide-bbox="true"
     inkscape:window-maximized="1"
     inkscape:bbox-nodes="true"
     inkscape:bbox-paths="true"
     inkscape:snap-bbox-midpoints="false"
     inkscape:snap-bbox-edge-midpoints="false"
     inkscape:snap-global="true"
     inkscape:snap-others="false">
    <inkscape:grid
       spacingy="1"
       spacingx="1"
       id="grid5883"
       type="xygrid"
       enabled="true"
       visible="true"
       empspacing="4"
       snapvisiblegridlinesonly="true"
       originx="0"
       originy="0" />
    <sodipodi:guide
       position="256,256"
       orientation="-0.70710678,0.70710678"
       id="guide10813"
       inkscape:label=""
       inkscape:color="rgb(0,0,255)"
       inkscape:locked="false" />
    <sodipodi:guide
       position="256,256"
       orientation="0.70710678,0.70710678"
       id="guide10815"
       inkscape:label=""
       inkscape:color="rgb(0,0,255)"
       inkscape:locked="false" />
    <sodipodi:guide
       position="104,408"
       orientation="1,0"
       id="guide10817"
       inkscape:locked="false" />
    <sodipodi:guide
       position="120,408"
       orientation="1,0"
       id="guide10819"
       inkscape:locked="false" />
    <sodipodi:guide
       position="136,408"
       orientation="1,0"
       id="guide10821"
       inkscape:locked="false" />
    <sodipodi:guide
       position="104,392"
       orientation="0,1"
       id="guide10823"
       inkscape:locked="false" />
    <sodipodi:guide
       position="104,408"
       orientation="0,1"
       id="guide10825"
       inkscape:locked="false" />
    <sodipodi:guide
       position="104,376"
       orientation="0,1"
       id="guide10827"
       inkscape:locked="false" />
    <sodipodi:guide
       position="408,408"
       orientation="1,0"
       id="guide10829"
       inkscape:locked="false" />
    <sodipodi:guide
       position="376,408"
       orientation="1,0"
       id="guide10831"
       inkscape:locked="false" />
    <sodipodi:guide
       position="392,408"
       orientation="1,0"
       id="guide10833"
       inkscape:locked="false" />
    <sodipodi:guide
       position="104,104"
       orientation="0,1"
       id="guide10837"
       inkscape:locked="false" />
    <sodipodi:guide
       position="104,120"
       orientation="0,1"
       id="guide10839"
       inkscape:locked="false" />
    <sodipodi:guide
       position="104,136"
       orientation="0,1"
       id="guide10841"
       inkscape:locked="false" />
    <sodipodi:guide
       position="0,496"
       orientation="0,1"
       id="guide10843"
       inkscape:locked="false" />
    <sodipodi:guide
       position="0,16"
       orientation="0,1"
       id="guide10845"
       inkscape:locked="false" />
  </sodipodi:namedview>
  <defs
     id="defs3">
    <linearGradient
       id="linearGradient3045">
      <stop
         style="stop-color:#847784;stop-opacity:0.99607843"
         offset="0"
         id="stop3047" />
      <stop
         style="stop-color:#695f69;stop-opacity:1"
         offset="1"
         id="stop3049" />
    </linearGradient>
    <linearGradient
       id="linearGradient4213">
      <stop
         id="stop4215"
         offset="0"
         style="stop-color:#b1d7f3;stop-opacity:1" />
      <stop
         id="stop4217"
         offset="1"
         style="stop-color:#8fafda;stop-opacity:1" />
    </linearGradient>
    <linearGradient
       id="linearGradient5460"
       osb:paint="gradient">
      <stop
         style="stop-color:#e6e6e6;stop-opacity:1"
         offset="0"
         id="stop5462" />
      <stop
         style="stop-color:#ffffff;stop-opacity:1"
         offset="1"
         id="stop5464" />
    </linearGradient>
    <linearGradient
       id="linearGradient5476"
       osb:paint="solid">
      <stop
         style="stop-color:#772953;stop-opacity:1;"
         offset="0"
         id="stop5478" />
    </linearGradient>
    <filter
       color-interpolation-filters="sRGB"
       id="filter4154">
      <feComposite
         id="feComposite4156"
         in2="SourceGraphic"
         k3="0"
         k2="1"
         k1="0"
         result="composite1"
         k4="0"
         operator="arithmetic" />
      <feColorMatrix
         id="feColorMatrix4158"
         type="saturate"
         values="0"
         result="colormatrix1"
         in="composite1" />
      <feFlood
         id="feFlood4160"
         result="flood1"
         flood-color="rgb(72,59,72)" />
      <feBlend
         id="feBlend4162"
         result="blend1"
         mode="multiply"
         in2="colormatrix1"
         in="flood1" />
      <feBlend
         id="feBlend4164"
         mode="screen"
         in2="blend1"
         result="blend2" />
      <feColorMatrix
         id="feColorMatrix4166"
         type="saturate"
         values="1"
         result="colormatrix2"
         in="blend2" />
      <feComposite
         id="feComposite4168"
         operator="in"
         result="composite2"
         in2="SourceGraphic"
         in="colormatrix2" />
    </filter>
    <clipPath
       clipPathUnits="userSpaceOnUse"
       id="clipPath3062">
      <rect
         style="color:#000000;fill:url(#linearGradient3066);fill-opacity:1;fill-rule:nonzero;stroke:none;stroke-width:40;marker:none;visibility:visible;display:inline;overflow:visible;enable-background:new"
         id="rect3064"
         width="475.66452"
         height="445.93549"
         x="34.167744"
         y="-194.96773" />
    </clipPath>
    <linearGradient
       inkscape:collect="always"
       xlink:href="#linearGradient3045"
       id="linearGradient3066"
       gradientUnits="userSpaceOnUse"
       gradientTransform="matrix(1.8580645,0,0,1.8736786,4.4387126,-288.65166)"
       x1="256"
       y1="50"
       x2="256"
       y2="288" />
    <filter
       inkscape:collect="always"
       style="color-interpolation-filters:sRGB"
       id="filter12934"
       x="-0.012"
       width="1.024"
       y="-0.012"
       height="1.024">
      <feGaussianBlur
         inkscape:collect="always"
         stdDeviation="0.64"
         id="feGaussianBlur12936" />
    </filter>
    <filter
       inkscape:collect="always"
       style="color-interpolation-filters:sRGB"
       id="filter12940-0"
       x="-0.059999999"
       width="1.12"
       y="-0.059999999"
       height="1.12">
      <feGaussianBlur
         inkscape:collect="always"
         stdDeviation="3.2"
         id="feGaussianBlur12942-6" />
    </filter>
  </defs>
  <metadata
     id="metadata4">
    <rdf:RDF>
      <cc:Work
         rdf:about="">
        <dc:format>image/svg+xml</dc:format>
        <dc:type
           rdf:resource="http://purl.org/dc/dcmitype/StillImage" />
        <dc:creator>
          <cc:Agent>
            <dc:title>Sam Hewitt</dc:title>
          </cc:Agent>
        </dc:creator>
        <dc:source />
        <cc:license
           rdf:resource="http://creativecommons.org/licenses/by-sa/3.0/" />
        <dc:title>Template</dc:title>
        <dc:subject>
          <rdf:Bag />
        </dc:subject>
        <dc:date />
        <dc:rights>
          <cc:Agent>
            <dc:title />
          </cc:Agent>
        </dc:rights>
        <dc:publisher>
          <cc:Agent>
            <dc:title />
          </cc:Agent>
        </dc:publisher>
        <dc:identifier />
        <dc:relation />
        <dc:language />
        <dc:coverage />
        <dc:description />
        <dc:contributor>
          <cc:Agent>
            <dc:title />
          </cc:Agent>
        </dc:contributor>
      </cc:Work>
      <cc:Work
         rdf:about="">
        <dc:format>image/svg+xml</dc:format>
        <dc:type
           rdf:resource="http://purl.org/dc/dcmitype/StillImage" />
      </cc:Work>
      <cc:License
         rdf:about="http://creativecommons.org/licenses/by-sa/3.0/">
        <cc:permits
           rdf:resource="http://creativecommons.org/ns#Reproduction" />
        <cc:permits
           rdf:resource="http://creativecommons.org/ns#Distribution" />
        <cc:requires
           rdf:resource="http://creativecommons.org/ns#Notice" />
        <cc:requires
           rdf:resource="http://creativecommons.org/ns#Attribution" />
        <cc:permits
           rdf:resource="http://creativecommons.org/ns#DerivativeWorks" />
        <cc:requires
           rdf:resource="http://creativecommons.org/ns#ShareAlike" />
      </cc:License>
    </rdf:RDF>
  </metadata>
  <g
     style="display:inline"
     inkscape:groupmode="layer"
     inkscape:label="Icon"
     id="layer1"
     transform="translate(0,212)">
    <g
       style="display:inline"
       inkscape:label="Background"
       id="g3055"
       inkscape:groupmode="layer">
      <rect
         id="rect278"
         width="512"
         height="512"
         x="0"
         y="-212"
         style="fill:#ededed;fill-opacity:1" />
      <path
         style="color:#000000;display:inline;overflow:visible;visibility:visible;opacity:1;fill:#847d6c;fill-opacity:1;fill-rule:nonzero;stroke:none;stroke-width:6.00000048;marker:none;enable-background:accumulate"
         d="M 192,-132 V -20 H 81.999995 v 8 H 192 V 100 H 81.999995 v 8 H 192 v 112 h 8 V 108 h 112 v 112 h 8 V 108 h 112 v -8 H 320 V -12 h 112 v -8 H 320 v -112 h -8 V -20 H 200 v -112 z m 8,120 H 312 V 100 H 200 Z"
         id="path4635"
         inkscape:connector-curvature="0"
         sodipodi:nodetypes="cccccccccccccccccccccccccccccccccc" />
      <path
         style="color:#000000;display:inline;overflow:visible;visibility:visible;opacity:1;fill:#cfcdc4;fill-opacity:1;fill-rule:nonzero;stroke:none;stroke-width:4.24264097;marker:none;enable-background:accumulate"
         d="m 104,88 v 16 H 88 v 4 h 16 v 16 H 88 v 4 h 16 v 16 H 88 v 4 h 16 v 16 H 88 v 4 h 16 v 16 h 4 v -16 h 16 v 16 h 4 v -16 h 16 v 16 h 4 v -16 h 16 v 16 h 4 v -16 h 16 v -4 h -16 v -16 h 16 v -4 h -16 v -16 h 16 v -4 h -16 v -16 h 16 v -4 H 168 V 88 h -4 v 16 H 148 V 88 h -4 v 16 H 128 V 88 h -4 v 16 H 108 V 88 Z m 120,0 v 16 h -16 v 4 h 16 v 16 h -16 v 4 h 16 v 16 h -16 v 4 h 16 v 16 h -16 v 4 h 16 v 16 h 4 v -16 h 16 v 16 h 4 v -16 h 16 v 16 h 4 v -16 h 16 v 16 h 4 v -16 h 16 v -4 h -16 v -16 h 16 v -4 h -16 v -16 h 16 v -4 h -16 v -16 h 16 v -4 H 288 V 88 h -4 v 16 H 268 V 88 h -4 v 16 H 248 V 88 h -4 v 16 H 228 V 88 Z m 120,0 v 16 h -16 v 4 h 16 v 16 h -16 v 4 h 16 v 16 h -16 v 4 h 16 v 16 h -16 v 4 h 16 v 16 h 4 v -16 h 16 v 16 h 4 v -16 h 16 v 16 h 4 v -16 h 16 v 16 h 4 v -16 h 16 v -4 h -16 v -16 h 16 v -4 h -16 v -16 h 16 v -4 h -16 v -16 h 16 v -4 H 408 V 88 h -4 v 16 H 388 V 88 h -4 v 16 H 368 V 88 h -4 v 16 H 348 V 88 Z m -236,20 h 16 v 16 h -16 z m 20,0 h 16 v 16 h -16 z m 20,0 h 16 v 16 h -16 z m 80,0 h 16 v 16 h -16 z m 20,0 h 16 v 16 h -16 z m 20,0 h 16 v 16 h -16 z m 80,0 h 16 v 16 h -16 z m 20,0 h 16 v 16 h -16 z m 20,0 h 16 v 16 h -16 z m -280,20 h 16 v 16 h -16 z m 20,0 h 16 v 16 h -16 z m 20,0 h 16 v 16 h -16 z m 80,0 h 16 v 16 h -16 z m 20,0 h 16 v 16 h -16 z m 20,0 h 16 v 16 h -16 z m 80,0 h 16 v 16 h -16 z m 20,0 h 16 v 16 h -16 z m 20,0 h 16 v 16 h -16 z m -280,20 h 16 v 16 h -16 z m 20,0 h 16 v 16 h -16 z m 20,0 h 16 v 16 h -16 z m 80,0 h 16 v 16 h -16 z m 20,0 h 16 v 16 h -16 z m 20,0 h 16 v 16 h -16 z m 80,0 h 16 v 16 h -16 z m 20,0 h 16 v 16 h -16 z m 20,0 h 16 v 16 h -16 z m -284,60 v 16 H 88 v 4 h 16 v 16 H 88 v 4 h 16 v 16 H 88 v 4 h 16 v 16 H 88 v 4 h 16 v 16 h 4 v -16 h 16 v 16 h 4 v -16 h 16 v 16 h 4 v -16 h 16 v 16 h 4 v -16 h 16 v -4 h -16 v -16 h 16 v -4 h -16 v -16 h 16 v -4 h -16 v -16 h 16 v -4 h -16 v -16 h -4 v 16 h -16 v -16 h -4 v 16 h -16 v -16 h -4 v 16 h -16 v -16 z m 120,0 v 16 h -16 v 4 h 16 v 16 h -16 v 4 h 16 v 16 h -16 v 4 h 16 v 16 h -16 v 4 h 16 v 16 h 4 v -16 h 16 v 16 h 4 v -16 h 16 v 16 h 4 v -16 h 16 v 16 h 4 v -16 h 16 v -4 h -16 v -16 h 16 v -4 h -16 v -16 h 16 v -4 h -16 v -16 h 16 v -4 h -16 v -16 h -4 v 16 h -16 v -16 h -4 v 16 h -16 v -16 h -4 v 16 h -16 v -16 z m 120,0 v 16 h -16 v 4 h 16 v 16 h -16 v 4 h 16 v 16 h -16 v 4 h 16 v 16 h -16 v 4 h 16 v 16 h 4 v -16 h 16 v 16 h 4 v -16 h 16 v 16 h 4 v -16 h 16 v 16 h 4 v -16 h 16 v -4 h -16 v -16 h 16 v -4 h -16 v -16 h 16 v -4 h -16 v -16 h 16 v -4 h -16 v -16 h -4 v 16 h -16 v -16 h -4 v 16 h -16 v -16 h -4 v 16 h -16 v -16 z m -236,20 h 16 v 16 h -16 z m 20,0 h 16 v 16 h -16 z m 20,0 h 16 v 16 h -16 z m 80,0 h 16 v 16 h -16 z m 20,0 h 16 v 16 h -16 z m 20,0 h 16 v 16 h -16 z m 80,0 h 16 v 16 h -16 z m 20,0 h 16 v 16 h -16 z m 20,0 h 16 v 16 h -16 z m -280,20 h 16 v 16 h -16 z m 20,0 h 16 v 16 h -16 z m 20,0 h 16 v 16 h -16 z m 80,0 h 16 v 16 h -16 z m 20,0 h 16 v 16 h -16 z m 20,0 h 16 v 16 h -16 z m 80,0 h 16 v 16 h -16 z m 20,0 h 16 v 16 h -16 z m 20,0 h 16 v 16 h -16 z m -280,20 h 16 v 16 h -16 z m 20,0 h 16 v 16 h -16 z m 20,0 h 16 v 16 h -16 z m 80,0 h 16 v 16 h -16 z m 20,0 h 16 v 16 h -16 z m 20,0 h 16 v 16 h -16 z m 80,0 h 16 v 16 h -16 z m 20,0 h 16 v 16 h -16 z m 20,0 h 16 v 16 h -16 z m -284,60 v 16 H 88 v 4 h 16 v 16 H 88 v 4 h 16 v 16 H 88 v 4 h 16 v 16 H 88 v 4 h 16 v 16 h 4 v -16 h 16 v 16 h 4 v -16 h 16 v 16 h 4 v -16 h 16 v 16 h 4 v -16 h 16 v -4 h -16 v -16 h 16 v -4 h -16 v -16 h 16 v -4 h -16 v -16 h 16 v -4 h -16 v -16 h -4 v 16 h -16 v -16 h -4 v 16 h -16 v -16 h -4 v 16 h -16 v -16 z m 120,0 v 16 h -16 v 4 h 16 v 16 h -16 v 4 h 16 v 16 h -16 v 4 h 16 v 16 h -16 v 4 h 16 v 16 h 4 v -16 h 16 v 16 h 4 v -16 h 16 v 16 h 4 v -16 h 16 v 16 h 4 v -16 h 16 v -4 h -16 v -16 h 16 v -4 h -16 v -16 h 16 v -4 h -16 v -16 h 16 v -4 h -16 v -16 h -4 v 16 h -16 v -16 h -4 v 16 h -16 v -16 h -4 v 16 h -16 v -16 z m 120,0 v 16 h -16 v 4 h 16 v 16 h -16 v 4 h 16 v 16 h -16 v 4 h 16 v 16 h -16 v 4 h 16 v 16 h 4 v -16 h 16 v 16 h 4 v -16 h 16 v 16 h 4 v -16 h 16 v 16 h 4 v -16 h 16 v -4 h -16 v -16 h 16 v -4 h -16 v -16 h 16 v -4 h -16 v -16 h 16 v -4 h -16 v -16 h -4 v 16 h -16 v -16 h -4 v 16 h -16 v -16 h -4 v 16 h -16 v -16 z m -236,20 h 16 v 16 h -16 z m 20,0 h 16 v 16 h -16 z m 20,0 h 16 v 16 h -16 z m 80,0 h 16 v 16 h -16 z m 20,0 h 16 v 16 h -16 z m 20,0 h 16 v 16 h -16 z m 80,0 h 16 v 16 h -16 z m 20,0 h 16 v 16 h -16 z m 20,0 h 16 v 16 h -16 z m -280,20 h 16 v 16 h -16 z m 20,0 h 16 v 16 h -16 z m 20,0 h 16 v 16 h -16 z m 80,0 h 16 v 16 h -16 z m 20,0 h 16 v 16 h -16 z m 20,0 h 16 v 16 h -16 z m 80,0 h 16 v 16 h -16 z m 20,0 h 16 v 16 h -16 z m 20,0 h 16 v 16 h -16 z m -280,20 h 16 v 16 h -16 z m 20,0 h 16 v 16 h -16 z m 20,0 h 16 v 16 h -16 z m 80,0 h 16 v 16 h -16 z m 20,0 h 16 v 16 h -16 z m 20,0 h 16 v 16 h -16 z m 80,0 h 16 v 16 h -16 z m 20,0 h 16 v 16 h -16 z m 20,0 h 16 v 16 h -16 z"
         id="path883"
         transform="translate(0,-212)"
         inkscape:connector-curvature="0" />
      <path
         sodipodi:nodetypes="ccccc"
         id="path10219"
         d="M 512,108 H 0 v 192 h 512 z"
         style="color:#000000;display:inline;overflow:visible;visibility:visible;opacity:0.2;fill:#ffffff;fill-opacity:1;fill-rule:nonzero;stroke:none;stroke-width:7.99999952;stroke-linecap:butt;stroke-linejoin:miter;stroke-miterlimit:4;stroke-dasharray:none;stroke-dashoffset:0;stroke-opacity:1;marker:none;enable-background:accumulate"
         inkscape:connector-curvature="0" />
      <path
         inkscape:connector-curvature="0"
         style="color:#000000;display:inline;overflow:visible;visibility:visible;opacity:0.05;fill:#000000;fill-opacity:1;fill-rule:nonzero;stroke:none;stroke-width:7.99999952;stroke-linecap:butt;stroke-linejoin:miter;stroke-miterlimit:4;stroke-dasharray:none;stroke-dashoffset:0;stroke-opacity:1;marker:none;enable-background:accumulate"
         d="M 512,-20 H 0 v -192 h 512 z"
         id="rect4238"
         sodipodi:nodetypes="ccccc" />
      <g
         id="g1736">
        <path
           sodipodi:nodetypes="sssssssss"
           inkscape:connector-curvature="0"
           id="path12938"
           d="m 88,-15 h 96 c 12,0 16,0 16,15.99999983 V 97 c 0,16 -4,16 -16,16 H 88 C 76,113 72,113 72,97 V 0.99999983 C 72,-15 76,-15 88,-15 Z"
           style="display:inline;opacity:0.2;fill:#000000;fill-opacity:1;stroke:none;stroke-width:16;stroke-miterlimit:4;stroke-dasharray:none;stroke-opacity:1;filter:url(#filter12940-0);enable-background:new" />
        <path
           style="display:inline;opacity:0.1;fill:#000000;fill-opacity:1;stroke:none;stroke-width:16;stroke-miterlimit:4;stroke-dasharray:none;stroke-opacity:1;filter:url(#filter12934);enable-background:new"
           d="m 88,-19 h 96 c 12,0 16,0 16,15.9999998 V 93 c 0,16 -4,16 -16,16 H 88 C 76,109 72,109 72,93 V -3.0000002 C 72,-19 76,-19 88,-19 Z"
           id="path12932"
           inkscape:connector-curvature="0"
           sodipodi:nodetypes="sssssssss" />
        <path
           sodipodi:nodetypes="sssssssss"
           inkscape:connector-curvature="0"
           id="rect12893"
           d="m 88,-20 h 96 c 12,0 16,0 16,15.9999998 V 92 c 0,16 -4,16 -16,16 H 88 C 76,108 72,108 72,92 V -4.0000002 C 72,-20 76,-20 88,-20 Z"
           style="display:inline;opacity:1;fill:#f2f2f2;fill-opacity:1;stroke:none;stroke-width:16;stroke-miterlimit:4;stroke-dasharray:none;stroke-opacity:1;enable-background:new" />
        <path
           inkscape:connector-curvature="0"
           id="path12927"
           d="m 88,-20 c -12,0 -16,0 -16,15.9999998 v 1 C 72,-19 76,-19 88,-19 h 96 c 12,0 16,0 16,15.9999998 v -1 C 200,-20 196,-20 184,-20 Z"
           style="display:inline;opacity:1;fill:#ffffff;fill-opacity:1;stroke:none;stroke-width:16;stroke-miterlimit:4;stroke-dasharray:none;stroke-opacity:1;enable-background:new" />
      </g>
      <g
         id="letter-n"
         style="opacity:0.9;image-rendering:auto"
         inkscape:label="#g1592">
        <title
           id="title1594">N</title>
        <rect
           y="16"
           x="108"
           height="16"
           width="16"
           id="rect1468"
           style="opacity:1;fill:#444444;fill-opacity:1" />
        <rect
           y="-4"
           x="88"
           height="16"
           width="16"
           id="rect1468-3"
           style="display:inline;opacity:1;fill:#444444;fill-opacity:1;enable-background:new" />
        <rect
           y="16"
           x="88"
           height="16"
           width="16"
           id="rect1468-6"
           style="display:inline;opacity:1;fill:#444444;fill-opacity:1;enable-background:new" />
        <rect
           y="36"
           x="88"
           height="16"
           width="16"
           id="rect1468-7"
           style="display:inline;opacity:1;fill:#444444;fill-opacity:1;enable-background:new" />
        <rect
           y="56"
           x="88"
           height="16"
           width="16"
           id="rect1468-5"
           style="display:inline;opacity:1;fill:#444444;fill-opacity:1;enable-background:new" />
        <rect
           y="76"
           x="88"
           height="16"
           width="16"
           id="rect1468-35"
           style="display:inline;opacity:1;fill:#444444;fill-opacity:1;enable-background:new" />
        <rect
           y="36"
           x="128"
           height="16"
           width="16"
           id="rect1468-1"
           style="display:inline;opacity:1;fill:#444444;fill-opacity:1;enable-background:new" />
        <rect
           y="56"
           x="148"
           height="16"
           width="16"
           id="rect1468-70"
           style="display:inline;opacity:1;fill:#444444;fill-opacity:1;enable-background:new" />
        <rect
           y="76"
           x="168"
           height="16"
           width="16"
           id="rect1468-60"
           style="display:inline;opacity:1;fill:#444444;fill-opacity:1;enable-background:new" />
        <rect
           y="56"
           x="168"
           height="16"
           width="16"
           id="rect1468-626"
           style="display:inline;opacity:1;fill:#444444;fill-opacity:1;enable-background:new" />
        <rect
           y="36"
           x="168"
           height="16"
           width="16"
           id="rect1468-18"
           style="display:inline;opacity:1;fill:#444444;fill-opacity:1;enable-background:new" />
        <rect
           y="16"
           x="168"
           height="16"
           width="16"
           id="rect1468-79"
           style="display:inline;opacity:1;fill:#444444;fill-opacity:1;enable-background:new" />
        <rect
           y="-4"
           x="168"
           height="16"
           width="16"
           id="rect1468-20"
           style="display:inline;opacity:1;fill:#444444;fill-opacity:1;enable-background:new" />
      </g>
    </g>
    <g
       inkscape:groupmode="layer"
       id="layer5"
       inkscape:label="Pictogram"
       style="display:inline" />
  </g>
</svg>
